<?xml version="1.0" encoding="UTF-8" standalone="no"?>
<!-- Uploaded to: SVG Repo, www.svgrepo.com, Generator: SVG Repo Mixer Tools -->

<svg
   width="600"
   height="400"
   viewBox="0 0 768 512"
   version="1.1"
   id="svg2"
   sodipodi:docname="api.svg"
   inkscape:version="1.3.1 (9b9bdc1480, 2023-11-25, custom)"
   xmlns:inkscape="http://www.inkscape.org/namespaces/inkscape"
   xmlns:sodipodi="http://sodipodi.sourceforge.net/DTD/sodipodi-0.dtd"
   xmlns="http://www.w3.org/2000/svg"
   xmlns:svg="http://www.w3.org/2000/svg">
  <defs
     id="defs2" />
  <sodipodi:namedview
     id="namedview2"
     pagecolor="#ffffff"
     bordercolor="#000000"
     borderopacity="0.25"
     inkscape:showpageshadow="2"
     inkscape:pageopacity="0.0"
     inkscape:pagecheckerboard="0"
     inkscape:deskcolor="#d1d1d1"
     inkscape:zoom="0.81212892"
     inkscape:cx="414.34308"
     inkscape:cy="411.26475"
     inkscape:window-width="1862"
     inkscape:window-height="1011"
     inkscape:window-x="58"
     inkscape:window-y="32"
     inkscape:window-maximized="1"
     inkscape:current-layer="svg2" />
  <g
     id="g2"
     transform="matrix(0.54310025,0,0,0.53277907,104.8019,-16.442883)">
    <path
       d="m 441,408.6 c -3.12938,-3.09867 -8.17062,-3.09867 -11.3,0 l -66.7,66.7 -43,-43 c -1.50839,-1.50957 -3.56636,-2.33997 -5.7,-2.3 -2,0 -4.1,0.8 -5.7,2.3 L 206.8,534.2 c -37.31648,37.21923 -58.38429,87.69569 -58.6,140.4 -0.2,39.5 11.2,79.1 34.3,113.1 l -76.1,76.1 c -3.09867,3.12938 -3.09867,8.17062 0,11.3 l 42.4,42.4 c 1.6,1.6 3.6,2.3 5.7,2.3 2.1,0 4.1,-0.8 5.7,-2.3 l 76.1,-76.1 c 33.7,22.9 72.9,34.3 112.1,34.3 51.2,0 102.4,-19.5 141.5,-58.6 L 591.8,715.2 c 3.1,-3.1 3.1,-8.2 0,-11.3 l -43,-43 66.7,-66.7 c 3.1,-3.1 3.1,-8.2 0,-11.3 C 557.32473,524.8086 499.13335,466.73335 441,408.6 Z M 917.7,148.8 875.3,106.4 c -1.6,-1.6 -3.6,-2.3 -5.7,-2.3 -2.1,0 -4.1,0.8 -5.7,2.3 l -76.1,76.1 c -33.08223,-22.4147 -72.13941,-34.36529 -112.1,-34.3 -51.2,0 -102.4,19.5 -141.5,58.6 L 432.3,308.7 c -3.09867,3.12938 -3.09867,8.17062 0,11.3 L 704,591.7 c 1.6,1.6 3.6,2.3 5.7,2.3 2,0 4.1,-0.8 5.7,-2.3 L 756.53329,550.56671 817.3,489.8 c 68.9,-69 77,-175.7 24.3,-253.5 l 76.1,-76.1 c 3.1,-3.2 3.1,-8.3 0,-11.4 z"
       id="path2"
       style="display:inline;opacity:0.339935;fill:#000000;fill-opacity:1;stroke:#000000;stroke-width:140.8;stroke-linecap:butt;stroke-linejoin:round;stroke-dasharray:none;stroke-opacity:1;paint-order:stroke fill markers"
       sodipodi:nodetypes="cccccccccccssccsssscsccssscccsccsscccccs" />
    <path
       d="m 579.35735,546.28 c -3.12938,-3.09867 -8.17062,-3.09867 -11.3,0 l -66.6,66.6 -90.3,-90.3 66.7,-66.7 c 3.1,-3.1 3.1,-8.2 0,-11.3 l -36.4,-36.4 c -3.12938,-3.09867 -8.17062,-3.09867 -11.3,0 l -66.7,66.7 -43,-43 c -1.50839,-1.50957 -3.56636,-2.33997 -5.7,-2.3 -2,0 -4.1,0.8 -5.7,2.3 l -101.8,101.9 c -37.31648,37.21923 -58.38429,87.69569 -58.6,140.4 -0.2,39.5 11.2,79.1 34.3,113.1 l -76.1,76.1 c -3.09867,3.12938 -3.09867,8.17062 0,11.3 l 42.4,42.4 c 1.6,1.6 3.6,2.3 5.7,2.3 2.1,0 4.1,-0.8 5.7,-2.3 l 76.1,-76.1 c 33.7,22.9 72.9,34.3 112.1,34.3 51.2,0 102.4,-19.5 141.5,-58.6 l 101.9,-101.9 c 3.1,-3.1 3.1,-8.2 0,-11.3 l -43,-43 66.7,-66.7 c 3.1,-3.1 3.1,-8.2 0,-11.3 z m -137.2,222.4 c -24.72104,24.84772 -58.34957,38.7816 -93.4,38.7 -35.3,0 -68.4,-13.7 -93.4,-38.7 -24.9,-24.9 -38.7,-58.1 -38.7,-93.4 0,-35.3 13.7,-68.4 38.7,-93.4 l 59.4,-59.4 186.8,186.8 z m 476,-620.3 -42.4,-42.4 c -1.6,-1.6 -3.6,-2.3 -5.7,-2.3 -2.1,0 -4.1,0.8 -5.7,2.3 l -76.1,76.1 c -33.08223,-22.4147 -72.13941,-34.36529 -112.1,-34.3 -51.2,0 -102.4,19.5 -141.5,58.6 l -101.9,101.9 c -3.09867,3.12938 -3.09867,8.17062 0,11.3 l 271.7,271.7 c 1.6,1.6 3.6,2.3 5.7,2.3 2,0 4.1,-0.8 5.7,-2.3 L 756.99064,550.14671 817.75735,489.38 c 68.9,-69 77,-175.7 24.3,-253.5 l 76.1,-76.1 c 3.1,-3.2 3.1,-8.3 0,-11.4 z m -148.6,292.9 -59.4,59.4 -186.8,-186.8 59.4,-59.4 c 24.9,-24.9 58.1,-38.7 93.4,-38.7 35.3,0 68.4,13.7 93.4,38.7 24.9,24.9 38.7,58.1 38.7,93.4 0,35.3 -13.8,68.4 -38.7,93.4 z"
       id="path2-6"
       style="display:inline;fill:#fefefe;fill-opacity:1;stroke:#000000;stroke-width:0;stroke-linecap:butt;stroke-linejoin:round;stroke-dasharray:none;stroke-opacity:0.30499;paint-order:stroke fill markers"
       sodipodi:nodetypes="ccccsscccccccccccssccsssscsccccssscccssscccsccsscccccscccssssc" />
  </g>
</svg>
